<svg xmlns="http://www.w3.org/2000/svg" xmlns:xlink="http://www.w3.org/1999/xlink" width="420" zoomAndPan="magnify" viewBox="0 0 315 284.999983" height="380" preserveAspectRatio="xMidYMid meet" version="1.0"><defs><clipPath id="id1"><path d="M 112.828125 73 L 158.578125 73 L 158.578125 75.585938 L 112.828125 75.585938 Z M 112.828125 73 " clip-rule="nonzero"/></clipPath><clipPath id="id2"><path d="M 122 39 L 158.578125 39 L 158.578125 68 L 122 68 Z M 122 39 " clip-rule="nonzero"/></clipPath><clipPath id="id3"><path d="M 153 12 L 158.578125 12 L 158.578125 15 L 153 15 Z M 153 12 " clip-rule="nonzero"/></clipPath><clipPath id="id4"><path d="M 112.828125 4.335938 L 158.578125 4.335938 L 158.578125 7 L 112.828125 7 Z M 112.828125 4.335938 " clip-rule="nonzero"/></clipPath><clipPath id="id5"><path d="M 144 113 L 180.628906 113 L 180.628906 162 L 144 162 Z M 144 113 " clip-rule="nonzero"/></clipPath><clipPath id="id6"><path d="M 134.878906 98.1875 L 138 98.1875 L 138 105 L 134.878906 105 Z M 134.878906 98.1875 " clip-rule="nonzero"/></clipPath><clipPath id="id7"><path d="M 134.878906 112 L 180.628906 112 L 180.628906 169.4375 L 134.878906 169.4375 Z M 134.878906 112 " clip-rule="nonzero"/></clipPath><clipPath id="id8"><path d="M 5.3125 114 L 8 114 L 8 169.4375 L 5.3125 169.4375 Z M 5.3125 114 " clip-rule="nonzero"/></clipPath><clipPath id="id9"><path d="M 14 98.1875 L 52.5625 98.1875 L 52.5625 169.4375 L 14 169.4375 Z M 14 98.1875 " clip-rule="nonzero"/></clipPath><clipPath id="id10"><path d="M 5.3125 98.1875 L 11 98.1875 L 11 101 L 5.3125 101 Z M 5.3125 98.1875 " clip-rule="nonzero"/></clipPath><clipPath id="id11"><path d="M 60.128906 98.1875 L 84 98.1875 L 84 150 L 60.128906 150 Z M 60.128906 98.1875 " clip-rule="nonzero"/></clipPath><clipPath id="id12"><path d="M 95 107 L 125.378906 107 L 125.378906 169.4375 L 95 169.4375 Z M 95 107 " clip-rule="nonzero"/></clipPath><clipPath id="id13"><path d="M 246.542969 98.1875 L 271 98.1875 L 271 150 L 246.542969 150 Z M 246.542969 98.1875 " clip-rule="nonzero"/></clipPath><clipPath id="id14"><path d="M 281 107 L 311.792969 107 L 311.792969 169.4375 L 281 169.4375 Z M 281 107 " clip-rule="nonzero"/></clipPath><clipPath id="id15"><path d="M 200 113 L 236.765625 113 L 236.765625 162 L 200 162 Z M 200 113 " clip-rule="nonzero"/></clipPath><clipPath id="id16"><path d="M 191.015625 98.1875 L 194 98.1875 L 194 105 L 191.015625 105 Z M 191.015625 98.1875 " clip-rule="nonzero"/></clipPath><clipPath id="id17"><path d="M 191.015625 112 L 236.765625 112 L 236.765625 169.4375 L 191.015625 169.4375 Z M 191.015625 112 " clip-rule="nonzero"/></clipPath><clipPath id="id18"><path d="M 178 19 L 215.507812 19 L 215.507812 68 L 178 68 Z M 178 19 " clip-rule="nonzero"/></clipPath><clipPath id="id19"><path d="M 169.757812 4.335938 L 173 4.335938 L 173 11 L 169.757812 11 Z M 169.757812 4.335938 " clip-rule="nonzero"/></clipPath><clipPath id="id20"><path d="M 169.757812 18 L 215.507812 18 L 215.507812 75.585938 L 169.757812 75.585938 Z M 169.757812 18 " clip-rule="nonzero"/></clipPath><clipPath id="id21"><path d="M 32 205 L 69.410156 205 L 69.410156 253 L 32 253 Z M 32 205 " clip-rule="nonzero"/></clipPath><clipPath id="id22"><path d="M 23.660156 189.652344 L 26 189.652344 L 26 197 L 23.660156 197 Z M 23.660156 189.652344 " clip-rule="nonzero"/></clipPath><clipPath id="id23"><path d="M 23.660156 203 L 69.410156 203 L 69.410156 260.902344 L 23.660156 260.902344 Z M 23.660156 203 " clip-rule="nonzero"/></clipPath><clipPath id="id24"><path d="M 79.339844 189.652344 L 104 189.652344 L 104 241 L 79.339844 241 Z M 79.339844 189.652344 " clip-rule="nonzero"/></clipPath><clipPath id="id25"><path d="M 114 198 L 144.589844 198 L 144.589844 260.902344 L 114 260.902344 Z M 114 198 " clip-rule="nonzero"/></clipPath><clipPath id="id26"><path d="M 223.523438 193.324219 L 248 193.324219 L 248 245 L 223.523438 245 Z M 223.523438 193.324219 " clip-rule="nonzero"/></clipPath><clipPath id="id27"><path d="M 258 202 L 288.773438 202 L 288.773438 264.574219 L 258 264.574219 Z M 258 202 " clip-rule="nonzero"/></clipPath><clipPath id="id28"><path d="M 151.472656 189.652344 L 210.722656 189.652344 L 210.722656 260.902344 L 151.472656 260.902344 Z M 151.472656 189.652344 " clip-rule="nonzero"/></clipPath></defs><g clip-path="url(#id1)"><path fill="rgb(100%, 64.709473%, 0%)" d="M 157.410156 73.300781 L 113.992188 73.300781 C 113.359375 73.300781 112.84375 73.8125 112.84375 74.445312 C 112.84375 75.078125 113.359375 75.59375 113.992188 75.59375 L 157.410156 75.59375 C 158.042969 75.59375 158.558594 75.078125 158.558594 74.445312 C 158.558594 73.8125 158.042969 73.300781 157.410156 73.300781 " fill-opacity="1" fill-rule="nonzero"/></g><g clip-path="url(#id2)"><path fill="rgb(100%, 64.709473%, 0%)" d="M 122.042969 67.441406 L 157.410156 67.441406 C 158.042969 67.441406 158.558594 66.929688 158.558594 66.296875 C 158.558594 65.664062 158.042969 65.152344 157.410156 65.152344 L 124.339844 65.152344 L 124.339844 41.832031 L 150.085938 41.832031 C 150.71875 41.832031 151.234375 41.316406 151.234375 40.683594 C 151.234375 40.050781 150.71875 39.539062 150.085938 39.539062 L 122.042969 39.539062 L 122.042969 67.441406 " fill-opacity="1" fill-rule="nonzero"/></g><path fill="rgb(100%, 64.709473%, 0%)" d="M 149.117188 14.785156 C 149.75 14.785156 150.265625 14.273438 150.265625 13.640625 C 150.265625 13.007812 149.75 12.492188 149.117188 12.492188 L 122.042969 12.492188 L 122.042969 33.679688 L 150.085938 33.679688 C 150.71875 33.679688 151.234375 33.167969 151.234375 32.535156 C 151.234375 31.902344 150.71875 31.390625 150.085938 31.390625 L 124.339844 31.390625 L 124.339844 14.785156 L 149.117188 14.785156 " fill-opacity="1" fill-rule="nonzero"/><g clip-path="url(#id3)"><path fill="rgb(100%, 64.709473%, 0%)" d="M 157.371094 14.785156 C 158.007812 14.785156 158.519531 14.273438 158.519531 13.640625 C 158.519531 13.007812 158.007812 12.492188 157.371094 12.492188 L 154.476562 12.492188 C 153.84375 12.492188 153.328125 13.007812 153.328125 13.640625 C 153.328125 14.273438 153.84375 14.785156 154.476562 14.785156 L 157.371094 14.785156 " fill-opacity="1" fill-rule="nonzero"/></g><g clip-path="url(#id4)"><path fill="rgb(100%, 64.709473%, 0%)" d="M 113.992188 6.632812 L 157.371094 6.632812 C 158.007812 6.632812 158.523438 6.121094 158.523438 5.488281 C 158.523438 4.855469 158.007812 4.34375 157.371094 4.34375 L 113.992188 4.34375 C 113.359375 4.34375 112.84375 4.855469 112.84375 5.488281 C 112.84375 6.121094 113.359375 6.632812 113.992188 6.632812 " fill-opacity="1" fill-rule="nonzero"/></g><g clip-path="url(#id5)"><path fill="rgb(100%, 64.709473%, 0%)" d="M 180.613281 160.148438 C 180.613281 159.515625 180.105469 159.003906 179.472656 159.003906 L 146.3125 159.003906 L 146.3125 114.863281 C 146.3125 114.230469 145.804688 113.71875 145.171875 113.71875 C 144.542969 113.71875 144.035156 114.230469 144.035156 114.863281 L 144.035156 161.292969 L 179.472656 161.292969 C 180.105469 161.292969 180.613281 160.78125 180.613281 160.148438 " fill-opacity="1" fill-rule="nonzero"/></g><g clip-path="url(#id6)"><path fill="rgb(100%, 64.709473%, 0%)" d="M 136.046875 104.742188 C 136.675781 104.742188 137.183594 104.226562 137.183594 103.59375 L 137.183594 99.339844 C 137.183594 98.707031 136.675781 98.195312 136.046875 98.195312 C 135.414062 98.195312 134.90625 98.707031 134.90625 99.339844 L 134.90625 103.59375 C 134.90625 104.226562 135.414062 104.742188 136.046875 104.742188 " fill-opacity="1" fill-rule="nonzero"/></g><g clip-path="url(#id7)"><path fill="rgb(100%, 64.709473%, 0%)" d="M 179.472656 167.152344 L 137.183594 167.152344 L 137.183594 113.332031 C 137.183594 112.699219 136.675781 112.183594 136.046875 112.183594 C 135.414062 112.183594 134.90625 112.699219 134.90625 113.332031 L 134.90625 169.441406 L 179.472656 169.441406 C 180.105469 169.441406 180.613281 168.929688 180.613281 168.296875 C 180.613281 167.664062 180.105469 167.152344 179.472656 167.152344 " fill-opacity="1" fill-rule="nonzero"/></g><g clip-path="url(#id8)"><path fill="rgb(100%, 64.709473%, 0%)" d="M 6.464844 114.859375 C 5.832031 114.859375 5.320312 115.375 5.320312 116.003906 L 5.320312 168.277344 C 5.320312 168.910156 5.832031 169.425781 6.464844 169.425781 C 7.09375 169.425781 7.605469 168.910156 7.605469 168.277344 L 7.605469 116.003906 C 7.605469 115.375 7.09375 114.859375 6.464844 114.859375 " fill-opacity="1" fill-rule="nonzero"/></g><g clip-path="url(#id9)"><path fill="rgb(100%, 64.709473%, 0%)" d="M 50.28125 109.671875 C 48.769531 106.894531 46.605469 104.550781 43.84375 102.695312 C 41.527344 101.144531 38.84375 99.992188 35.863281 99.269531 C 32.921875 98.554688 29.308594 98.195312 25.113281 98.195312 L 21.105469 98.195312 C 20.472656 98.195312 19.964844 98.707031 19.964844 99.339844 C 19.964844 99.972656 20.472656 100.484375 21.105469 100.484375 L 25.113281 100.484375 C 29.128906 100.484375 32.5625 100.824219 35.324219 101.492188 C 38.042969 102.152344 40.484375 103.199219 42.578125 104.597656 C 45.023438 106.242188 46.945312 108.320312 48.28125 110.769531 C 49.613281 113.210938 50.289062 116.375 50.289062 120.175781 C 50.289062 123.066406 49.78125 125.78125 48.777344 128.238281 C 47.78125 130.691406 46.363281 132.847656 44.574219 134.644531 C 42.332031 136.890625 39.644531 138.601562 36.585938 139.726562 C 33.492188 140.863281 29.511719 141.4375 24.746094 141.4375 L 14.460938 141.4375 L 14.460938 168.277344 C 14.460938 168.910156 14.972656 169.425781 15.605469 169.425781 C 16.234375 169.425781 16.746094 168.910156 16.746094 168.277344 L 16.746094 143.726562 L 24.746094 143.726562 C 29.777344 143.726562 34.027344 143.105469 37.371094 141.875 C 40.746094 140.636719 43.710938 138.746094 46.1875 136.261719 C 48.195312 134.25 49.777344 131.839844 50.890625 129.101562 C 52.007812 126.371094 52.570312 123.367188 52.570312 120.175781 C 52.570312 115.988281 51.800781 112.453125 50.28125 109.671875 " fill-opacity="1" fill-rule="nonzero"/></g><g clip-path="url(#id10)"><path fill="rgb(100%, 64.709473%, 0%)" d="M 9.117188 98.195312 L 6.464844 98.195312 C 5.832031 98.195312 5.320312 98.707031 5.320312 99.339844 C 5.320312 99.972656 5.832031 100.484375 6.464844 100.484375 L 9.117188 100.484375 C 9.75 100.484375 10.257812 99.972656 10.257812 99.339844 C 10.257812 98.707031 9.75 98.195312 9.117188 98.195312 " fill-opacity="1" fill-rule="nonzero"/></g><path fill="rgb(100%, 64.709473%, 0%)" d="M 37.140625 129.78125 C 35.839844 131.085938 34.109375 132.054688 32 132.664062 C 29.808594 133.292969 26.886719 133.613281 23.3125 133.613281 L 15.605469 133.613281 C 14.972656 133.613281 14.460938 134.125 14.460938 134.757812 C 14.460938 135.390625 14.972656 135.902344 15.605469 135.902344 L 23.3125 135.902344 C 27.097656 135.902344 30.234375 135.554688 32.632812 134.863281 C 35.117188 134.148438 37.179688 132.984375 38.765625 131.390625 C 40.316406 129.800781 41.4375 128.09375 42.089844 126.3125 C 42.734375 124.554688 43.058594 122.570312 43.058594 120.40625 C 43.058594 117.867188 42.605469 115.613281 41.703125 113.710938 C 40.785156 111.769531 39.375 110.160156 37.503906 108.933594 C 35.917969 107.90625 34.089844 107.160156 32.074219 106.71875 C 30.109375 106.285156 27.609375 106.066406 24.652344 106.066406 L 15.605469 106.066406 C 14.972656 106.066406 14.460938 106.578125 14.460938 107.210938 C 14.460938 107.84375 14.972656 108.355469 15.605469 108.355469 L 24.652344 108.355469 C 27.445312 108.355469 29.78125 108.554688 31.585938 108.953125 C 33.335938 109.339844 34.910156 109.980469 36.261719 110.855469 C 37.769531 111.84375 38.90625 113.132812 39.640625 114.691406 C 40.394531 116.289062 40.777344 118.210938 40.777344 120.40625 C 40.777344 122.296875 40.5 124.019531 39.945312 125.519531 C 39.40625 126.996094 38.457031 128.433594 37.140625 129.78125 " fill-opacity="1" fill-rule="nonzero"/><g clip-path="url(#id11)"><path fill="rgb(100%, 64.709473%, 0%)" d="M 62.386719 133.308594 C 62.386719 127.953125 63.101562 123.089844 64.515625 118.851562 C 65.914062 114.648438 67.980469 111.003906 70.65625 108.019531 C 73.195312 105.199219 76.402344 103.007812 80.183594 101.507812 C 81.132812 101.128906 82.117188 100.796875 83.113281 100.511719 C 83.710938 100.339844 84.058594 99.722656 83.886719 99.125 C 83.714844 98.53125 83.09375 98.191406 82.496094 98.355469 C 81.429688 98.660156 80.371094 99.019531 79.351562 99.421875 C 75.246094 101.054688 71.753906 103.441406 68.980469 106.523438 C 66.097656 109.738281 63.875 113.648438 62.375 118.144531 C 60.886719 122.609375 60.132812 127.714844 60.132812 133.308594 C 60.132812 139.003906 60.898438 144.144531 62.402344 148.59375 C 62.558594 149.0625 62.996094 149.355469 63.46875 149.355469 C 63.585938 149.355469 63.707031 149.335938 63.828125 149.296875 C 64.417969 149.101562 64.734375 148.464844 64.535156 147.875 C 63.109375 143.660156 62.386719 138.757812 62.386719 133.308594 " fill-opacity="1" fill-rule="nonzero"/></g><g clip-path="url(#id12)"><path fill="rgb(100%, 64.709473%, 0%)" d="M 123.082031 118.027344 C 121.722656 113.972656 119.792969 110.429688 117.351562 107.496094 C 116.957031 107.019531 116.246094 106.949219 115.769531 107.347656 C 115.289062 107.742188 115.222656 108.453125 115.621094 108.925781 C 117.882812 111.648438 119.675781 114.949219 120.949219 118.742188 C 122.375 122.988281 123.097656 127.890625 123.097656 133.308594 C 123.097656 138.726562 122.359375 143.632812 120.90625 147.894531 C 119.460938 152.128906 117.417969 155.695312 114.832031 158.503906 C 112.167969 161.417969 108.972656 163.640625 105.339844 165.113281 C 102.597656 166.222656 99.523438 166.925781 96.1875 167.207031 C 95.570312 167.257812 95.109375 167.800781 95.160156 168.417969 C 95.210938 169.003906 95.703125 169.445312 96.28125 169.445312 C 96.3125 169.445312 96.34375 169.445312 96.378906 169.441406 C 99.9375 169.144531 103.238281 168.386719 106.1875 167.195312 C 110.136719 165.59375 113.605469 163.175781 116.492188 160.015625 C 119.289062 156.980469 121.492188 153.148438 123.035156 148.621094 C 124.570312 144.125 125.347656 138.972656 125.347656 133.308594 C 125.347656 127.648438 124.585938 122.507812 123.082031 118.027344 " fill-opacity="1" fill-rule="nonzero"/></g><path fill="rgb(100%, 64.709473%, 0%)" d="M 105.378906 101.527344 C 106.289062 101.898438 107.171875 102.3125 108.003906 102.757812 C 108.175781 102.847656 108.355469 102.894531 108.535156 102.894531 C 108.9375 102.894531 109.328125 102.675781 109.527344 102.300781 C 109.824219 101.753906 109.617188 101.074219 109.070312 100.78125 C 108.167969 100.300781 107.214844 99.851562 106.238281 99.449219 C 105.664062 99.21875 105.003906 99.488281 104.765625 100.0625 C 104.53125 100.632812 104.804688 101.289062 105.378906 101.527344 " fill-opacity="1" fill-rule="nonzero"/><path fill="rgb(100%, 64.709473%, 0%)" d="M 108.058594 113.722656 C 111.816406 118.257812 113.71875 124.847656 113.71875 133.308594 C 113.71875 139.933594 112.5625 145.410156 110.28125 149.589844 C 109.984375 150.132812 110.1875 150.8125 110.734375 151.109375 C 111.28125 151.40625 111.964844 151.207031 112.261719 150.660156 C 114.722656 146.148438 115.972656 140.3125 115.972656 133.308594 C 115.972656 124.3125 113.894531 117.242188 109.796875 112.292969 C 105.644531 107.285156 99.914062 104.742188 92.765625 104.742188 C 85.554688 104.742188 79.800781 107.285156 75.664062 112.296875 C 71.582031 117.242188 69.511719 124.3125 69.511719 133.308594 C 69.511719 142.402344 71.625 149.492188 75.789062 154.382812 C 76.011719 154.644531 76.328125 154.777344 76.648438 154.777344 C 76.90625 154.777344 77.164062 154.691406 77.375 154.511719 C 77.851562 154.109375 77.910156 153.402344 77.507812 152.929688 C 73.695312 148.457031 71.765625 141.855469 71.765625 133.308594 C 71.765625 124.84375 73.660156 118.253906 77.402344 113.71875 C 81.144531 109.1875 86.167969 106.984375 92.765625 106.984375 C 99.300781 106.984375 104.304688 109.1875 108.058594 113.722656 " fill-opacity="1" fill-rule="nonzero"/><g clip-path="url(#id13)"><path fill="rgb(100%, 64.709473%, 0%)" d="M 248.796875 133.308594 C 248.796875 127.953125 249.511719 123.089844 250.925781 118.851562 C 252.324219 114.648438 254.394531 111.003906 257.066406 108.019531 C 259.609375 105.199219 262.8125 103.007812 266.59375 101.507812 C 267.542969 101.128906 268.53125 100.796875 269.523438 100.511719 C 270.121094 100.339844 270.46875 99.722656 270.296875 99.125 C 270.125 98.53125 269.503906 98.191406 268.90625 98.355469 C 267.839844 98.660156 266.78125 99.019531 265.761719 99.421875 C 261.65625 101.054688 258.167969 103.441406 255.390625 106.523438 C 252.507812 109.738281 250.289062 113.648438 248.789062 118.144531 C 247.300781 122.609375 246.546875 127.714844 246.546875 133.308594 C 246.546875 139.003906 247.308594 144.144531 248.8125 148.59375 C 248.96875 149.0625 249.410156 149.355469 249.878906 149.355469 C 250 149.355469 250.121094 149.335938 250.238281 149.296875 C 250.828125 149.101562 251.144531 148.464844 250.945312 147.875 C 249.519531 143.660156 248.796875 138.757812 248.796875 133.308594 " fill-opacity="1" fill-rule="nonzero"/></g><g clip-path="url(#id14)"><path fill="rgb(100%, 64.709473%, 0%)" d="M 309.496094 118.027344 C 308.132812 113.972656 306.203125 110.429688 303.761719 107.496094 C 303.367188 107.019531 302.65625 106.949219 302.179688 107.347656 C 301.699219 107.742188 301.632812 108.453125 302.03125 108.925781 C 304.292969 111.648438 306.085938 114.949219 307.359375 118.742188 C 308.785156 122.988281 309.507812 127.890625 309.507812 133.308594 C 309.507812 138.726562 308.769531 143.632812 307.316406 147.894531 C 305.871094 152.128906 303.828125 155.695312 301.242188 158.503906 C 298.578125 161.417969 295.386719 163.640625 291.75 165.113281 C 289.011719 166.222656 285.933594 166.925781 282.597656 167.207031 C 281.980469 167.257812 281.519531 167.800781 281.570312 168.417969 C 281.621094 169.003906 282.113281 169.445312 282.691406 169.445312 C 282.722656 169.445312 282.753906 169.445312 282.789062 169.441406 C 286.347656 169.144531 289.648438 168.386719 292.597656 167.195312 C 296.546875 165.59375 300.015625 163.175781 302.90625 160.015625 C 305.699219 156.980469 307.902344 153.148438 309.445312 148.621094 C 310.980469 144.125 311.761719 138.972656 311.761719 133.308594 C 311.761719 127.648438 311 122.507812 309.496094 118.027344 " fill-opacity="1" fill-rule="nonzero"/></g><path fill="rgb(100%, 64.709473%, 0%)" d="M 291.789062 101.527344 C 292.699219 101.898438 293.582031 102.3125 294.417969 102.757812 C 294.585938 102.847656 294.769531 102.894531 294.949219 102.894531 C 295.347656 102.894531 295.738281 102.675781 295.941406 102.300781 C 296.234375 101.753906 296.027344 101.074219 295.480469 100.78125 C 294.582031 100.300781 293.628906 99.851562 292.648438 99.449219 C 292.074219 99.21875 291.414062 99.488281 291.179688 100.0625 C 290.941406 100.632812 291.214844 101.289062 291.789062 101.527344 " fill-opacity="1" fill-rule="nonzero"/><path fill="rgb(100%, 64.709473%, 0%)" d="M 294.46875 113.722656 C 298.226562 118.257812 300.132812 124.847656 300.132812 133.308594 C 300.132812 139.933594 298.976562 145.410156 296.691406 149.589844 C 296.398438 150.132812 296.597656 150.8125 297.144531 151.109375 C 297.691406 151.40625 298.375 151.207031 298.671875 150.660156 C 301.132812 146.148438 302.382812 140.3125 302.382812 133.308594 C 302.382812 124.3125 300.304688 117.242188 296.207031 112.292969 C 292.054688 107.285156 286.324219 104.742188 279.175781 104.742188 C 271.964844 104.742188 266.210938 107.285156 262.074219 112.296875 C 257.992188 117.242188 255.925781 124.3125 255.925781 133.308594 C 255.925781 142.402344 258.035156 149.492188 262.199219 154.382812 C 262.421875 154.644531 262.738281 154.777344 263.058594 154.777344 C 263.316406 154.777344 263.574219 154.691406 263.789062 154.511719 C 264.261719 154.109375 264.320312 153.402344 263.917969 152.929688 C 260.105469 148.457031 258.175781 141.855469 258.175781 133.308594 C 258.175781 124.84375 260.070312 118.253906 263.816406 113.71875 C 267.554688 109.1875 272.578125 106.984375 279.175781 106.984375 C 285.710938 106.984375 290.714844 109.1875 294.46875 113.722656 " fill-opacity="1" fill-rule="nonzero"/><g clip-path="url(#id15)"><path fill="rgb(100%, 64.709473%, 0%)" d="M 236.75 160.148438 C 236.75 159.515625 236.242188 159.003906 235.613281 159.003906 L 202.453125 159.003906 L 202.453125 114.863281 C 202.453125 114.230469 201.941406 113.71875 201.3125 113.71875 C 200.679688 113.71875 200.171875 114.230469 200.171875 114.863281 L 200.171875 161.292969 L 235.613281 161.292969 C 236.242188 161.292969 236.75 160.78125 236.75 160.148438 " fill-opacity="1" fill-rule="nonzero"/></g><g clip-path="url(#id16)"><path fill="rgb(100%, 64.709473%, 0%)" d="M 192.183594 104.742188 C 192.8125 104.742188 193.320312 104.226562 193.320312 103.59375 L 193.320312 99.339844 C 193.320312 98.707031 192.8125 98.195312 192.183594 98.195312 C 191.550781 98.195312 191.042969 98.707031 191.042969 99.339844 L 191.042969 103.59375 C 191.042969 104.226562 191.550781 104.742188 192.183594 104.742188 " fill-opacity="1" fill-rule="nonzero"/></g><g clip-path="url(#id17)"><path fill="rgb(100%, 64.709473%, 0%)" d="M 235.613281 167.152344 L 193.320312 167.152344 L 193.320312 113.332031 C 193.320312 112.699219 192.8125 112.183594 192.183594 112.183594 C 191.550781 112.183594 191.042969 112.699219 191.042969 113.332031 L 191.042969 169.441406 L 235.613281 169.441406 C 236.242188 169.441406 236.75 168.929688 236.75 168.296875 C 236.75 167.664062 236.242188 167.152344 235.613281 167.152344 " fill-opacity="1" fill-rule="nonzero"/></g><g clip-path="url(#id18)"><path fill="rgb(100%, 64.709473%, 0%)" d="M 215.492188 66.296875 C 215.492188 65.664062 214.984375 65.148438 214.351562 65.148438 L 181.191406 65.148438 L 181.191406 21.011719 C 181.191406 20.378906 180.683594 19.863281 180.050781 19.863281 C 179.421875 19.863281 178.914062 20.378906 178.914062 21.011719 L 178.914062 67.441406 L 214.351562 67.441406 C 214.984375 67.441406 215.492188 66.929688 215.492188 66.296875 " fill-opacity="1" fill-rule="nonzero"/></g><g clip-path="url(#id19)"><path fill="rgb(100%, 64.709473%, 0%)" d="M 170.921875 10.886719 C 171.554688 10.886719 172.0625 10.375 172.0625 9.742188 L 172.0625 5.488281 C 172.0625 4.855469 171.554688 4.34375 170.921875 4.34375 C 170.292969 4.34375 169.785156 4.855469 169.785156 5.488281 L 169.785156 9.742188 C 169.785156 10.375 170.292969 10.886719 170.921875 10.886719 " fill-opacity="1" fill-rule="nonzero"/></g><g clip-path="url(#id20)"><path fill="rgb(100%, 64.709473%, 0%)" d="M 214.351562 73.300781 L 172.0625 73.300781 L 172.0625 19.476562 C 172.0625 18.847656 171.554688 18.332031 170.921875 18.332031 C 170.292969 18.332031 169.785156 18.847656 169.785156 19.476562 L 169.785156 75.589844 L 214.351562 75.589844 C 214.984375 75.589844 215.492188 75.078125 215.492188 74.445312 C 215.492188 73.8125 214.984375 73.300781 214.351562 73.300781 " fill-opacity="1" fill-rule="nonzero"/></g><g clip-path="url(#id21)"><path fill="rgb(100%, 64.709473%, 0%)" d="M 69.394531 251.613281 C 69.394531 250.980469 68.886719 250.46875 68.257812 250.46875 L 35.097656 250.46875 L 35.097656 206.328125 C 35.097656 205.695312 34.585938 205.183594 33.957031 205.183594 C 33.324219 205.183594 32.816406 205.695312 32.816406 206.328125 L 32.816406 252.757812 L 68.257812 252.757812 C 68.886719 252.757812 69.394531 252.246094 69.394531 251.613281 " fill-opacity="1" fill-rule="nonzero"/></g><g clip-path="url(#id22)"><path fill="rgb(100%, 64.709473%, 0%)" d="M 24.828125 196.207031 C 25.457031 196.207031 25.96875 195.695312 25.96875 195.0625 L 25.96875 190.804688 C 25.96875 190.171875 25.457031 189.660156 24.828125 189.660156 C 24.195312 189.660156 23.6875 190.171875 23.6875 190.804688 L 23.6875 195.0625 C 23.6875 195.695312 24.195312 196.207031 24.828125 196.207031 " fill-opacity="1" fill-rule="nonzero"/></g><g clip-path="url(#id23)"><path fill="rgb(100%, 64.709473%, 0%)" d="M 68.257812 258.617188 L 25.96875 258.617188 L 25.96875 204.796875 C 25.96875 204.164062 25.457031 203.652344 24.828125 203.652344 C 24.195312 203.652344 23.6875 204.164062 23.6875 204.796875 L 23.6875 260.910156 L 68.257812 260.910156 C 68.886719 260.910156 69.394531 260.398438 69.394531 259.765625 C 69.394531 259.132812 68.886719 258.617188 68.257812 258.617188 " fill-opacity="1" fill-rule="nonzero"/></g><g clip-path="url(#id24)"><path fill="rgb(100%, 64.709473%, 0%)" d="M 81.59375 224.777344 C 81.59375 219.417969 82.308594 214.554688 83.722656 210.316406 C 85.121094 206.113281 87.1875 202.46875 89.863281 199.484375 C 92.40625 196.667969 95.609375 194.476562 99.390625 192.972656 C 100.339844 192.597656 101.328125 192.261719 102.320312 191.980469 C 102.917969 191.808594 103.265625 191.1875 103.09375 190.589844 C 102.921875 189.996094 102.300781 189.65625 101.703125 189.820312 C 100.636719 190.125 99.578125 190.484375 98.558594 190.890625 C 94.453125 192.519531 90.960938 194.90625 88.1875 197.988281 C 85.304688 201.203125 83.082031 205.113281 81.582031 209.609375 C 80.09375 214.078125 79.339844 219.179688 79.339844 224.777344 C 79.339844 230.46875 80.105469 235.609375 81.609375 240.058594 C 81.765625 240.527344 82.203125 240.824219 82.675781 240.824219 C 82.792969 240.824219 82.917969 240.804688 83.035156 240.761719 C 83.625 240.566406 83.941406 239.929688 83.742188 239.34375 C 82.316406 235.125 81.59375 230.226562 81.59375 224.777344 " fill-opacity="1" fill-rule="nonzero"/></g><g clip-path="url(#id25)"><path fill="rgb(100%, 64.709473%, 0%)" d="M 142.289062 209.496094 C 140.929688 205.441406 139 201.894531 136.558594 198.964844 C 136.164062 198.484375 135.453125 198.417969 134.976562 198.816406 C 134.496094 199.210938 134.429688 199.917969 134.828125 200.394531 C 137.089844 203.113281 138.882812 206.414062 140.15625 210.207031 C 141.582031 214.457031 142.304688 219.355469 142.304688 224.777344 C 142.304688 230.191406 141.566406 235.101562 140.113281 239.363281 C 138.667969 243.59375 136.625 247.160156 134.039062 249.96875 C 131.375 252.886719 128.183594 255.109375 124.546875 256.582031 C 121.808594 257.6875 118.730469 258.394531 115.394531 258.671875 C 114.777344 258.722656 114.316406 259.265625 114.367188 259.882812 C 114.417969 260.46875 114.910156 260.910156 115.488281 260.910156 C 115.519531 260.910156 115.550781 260.910156 115.585938 260.90625 C 119.144531 260.609375 122.445312 259.855469 125.394531 258.660156 C 129.34375 257.058594 132.8125 254.644531 135.703125 251.484375 C 138.496094 248.449219 140.699219 244.613281 142.242188 240.085938 C 143.777344 235.589844 144.558594 230.4375 144.558594 224.777344 C 144.558594 219.113281 143.792969 213.972656 142.289062 209.496094 " fill-opacity="1" fill-rule="nonzero"/></g><path fill="rgb(100%, 64.709473%, 0%)" d="M 124.585938 192.992188 C 125.496094 193.367188 126.378906 193.78125 127.210938 194.226562 C 127.382812 194.316406 127.566406 194.359375 127.742188 194.359375 C 128.144531 194.359375 128.535156 194.144531 128.734375 193.765625 C 129.03125 193.222656 128.824219 192.542969 128.277344 192.25 C 127.375 191.765625 126.421875 191.320312 125.445312 190.917969 C 124.871094 190.683594 124.210938 190.953125 123.972656 191.527344 C 123.738281 192.101562 124.011719 192.753906 124.585938 192.992188 " fill-opacity="1" fill-rule="nonzero"/><path fill="rgb(100%, 64.709473%, 0%)" d="M 127.265625 205.1875 C 131.023438 209.722656 132.925781 216.3125 132.925781 224.777344 C 132.925781 231.402344 131.769531 236.878906 129.488281 241.054688 C 129.191406 241.601562 129.394531 242.28125 129.941406 242.578125 C 130.488281 242.871094 131.171875 242.671875 131.46875 242.128906 C 133.929688 237.617188 135.179688 231.777344 135.179688 224.777344 C 135.179688 215.777344 133.101562 208.707031 129.003906 203.761719 C 124.851562 198.75 119.121094 196.207031 111.972656 196.207031 C 104.761719 196.207031 99.007812 198.75 94.871094 203.761719 C 90.789062 208.707031 88.71875 215.777344 88.71875 224.777344 C 88.71875 233.871094 90.832031 240.960938 94.996094 245.847656 C 95.21875 246.109375 95.535156 246.242188 95.855469 246.242188 C 96.113281 246.242188 96.371094 246.15625 96.582031 245.976562 C 97.058594 245.578125 97.117188 244.867188 96.714844 244.394531 C 92.902344 239.921875 90.972656 233.324219 90.972656 224.777344 C 90.972656 216.3125 92.867188 209.722656 96.609375 205.1875 C 100.351562 200.65625 105.375 198.453125 111.972656 198.453125 C 118.507812 198.453125 123.511719 200.65625 127.265625 205.1875 " fill-opacity="1" fill-rule="nonzero"/><g clip-path="url(#id26)"><path fill="rgb(100%, 64.709473%, 0%)" d="M 225.78125 228.445312 C 225.78125 223.089844 226.496094 218.226562 227.910156 213.988281 C 229.308594 209.785156 231.375 206.140625 234.050781 203.15625 C 236.589844 200.335938 239.796875 198.144531 243.578125 196.644531 C 244.527344 196.265625 245.515625 195.929688 246.507812 195.648438 C 247.105469 195.476562 247.453125 194.855469 247.28125 194.261719 C 247.109375 193.664062 246.488281 193.328125 245.890625 193.492188 C 244.824219 193.792969 243.765625 194.152344 242.746094 194.558594 C 238.640625 196.1875 235.148438 198.578125 232.375 201.660156 C 229.492188 204.871094 227.269531 208.785156 225.769531 213.28125 C 224.28125 217.746094 223.527344 222.847656 223.527344 228.445312 C 223.527344 234.140625 224.292969 239.28125 225.796875 243.730469 C 225.953125 244.195312 226.390625 244.492188 226.863281 244.492188 C 226.980469 244.492188 227.101562 244.472656 227.222656 244.433594 C 227.8125 244.234375 228.128906 243.597656 227.929688 243.011719 C 226.503906 238.796875 225.78125 233.894531 225.78125 228.445312 " fill-opacity="1" fill-rule="nonzero"/></g><g clip-path="url(#id27)"><path fill="rgb(100%, 64.709473%, 0%)" d="M 286.476562 213.164062 C 285.117188 209.109375 283.1875 205.566406 280.746094 202.632812 C 280.351562 202.15625 279.640625 202.085938 279.164062 202.484375 C 278.683594 202.878906 278.617188 203.585938 279.015625 204.0625 C 281.277344 206.785156 283.070312 210.085938 284.34375 213.875 C 285.769531 218.125 286.492188 223.027344 286.492188 228.445312 C 286.492188 233.863281 285.753906 238.769531 284.300781 243.03125 C 282.855469 247.265625 280.8125 250.832031 278.226562 253.636719 C 275.5625 256.554688 272.371094 258.777344 268.734375 260.25 C 265.992188 261.359375 262.917969 262.0625 259.582031 262.339844 C 258.964844 262.394531 258.503906 262.933594 258.554688 263.554688 C 258.605469 264.136719 259.097656 264.582031 259.675781 264.582031 C 259.707031 264.582031 259.738281 264.578125 259.773438 264.574219 C 263.332031 264.277344 266.632812 263.523438 269.582031 262.328125 C 273.53125 260.730469 277 258.3125 279.890625 255.152344 C 282.683594 252.117188 284.886719 248.28125 286.429688 243.753906 C 287.964844 239.257812 288.746094 234.109375 288.746094 228.445312 C 288.746094 222.785156 287.980469 217.644531 286.476562 213.164062 " fill-opacity="1" fill-rule="nonzero"/></g><path fill="rgb(100%, 64.709473%, 0%)" d="M 268.773438 196.660156 C 269.683594 197.035156 270.566406 197.449219 271.398438 197.894531 C 271.570312 197.984375 271.75 198.027344 271.929688 198.027344 C 272.332031 198.027344 272.722656 197.8125 272.921875 197.4375 C 273.21875 196.890625 273.011719 196.210938 272.464844 195.917969 C 271.5625 195.4375 270.609375 194.988281 269.632812 194.585938 C 269.058594 194.355469 268.398438 194.625 268.160156 195.195312 C 267.925781 195.769531 268.199219 196.425781 268.773438 196.660156 " fill-opacity="1" fill-rule="nonzero"/><path fill="rgb(100%, 64.709473%, 0%)" d="M 271.453125 208.859375 C 275.210938 213.394531 277.113281 219.984375 277.113281 228.445312 C 277.113281 235.070312 275.957031 240.546875 273.675781 244.726562 C 273.378906 245.269531 273.582031 245.949219 274.128906 246.246094 C 274.675781 246.542969 275.359375 246.34375 275.65625 245.796875 C 278.117188 241.285156 279.367188 235.449219 279.367188 228.445312 C 279.367188 219.449219 277.289062 212.378906 273.191406 207.429688 C 269.039062 202.417969 263.308594 199.878906 256.160156 199.878906 C 248.949219 199.878906 243.195312 202.417969 239.058594 207.433594 C 234.976562 212.378906 232.90625 219.445312 232.90625 228.445312 C 232.90625 237.539062 235.019531 244.628906 239.183594 249.519531 C 239.40625 249.777344 239.722656 249.914062 240.042969 249.914062 C 240.300781 249.914062 240.558594 249.824219 240.769531 249.648438 C 241.246094 249.246094 241.304688 248.539062 240.902344 248.066406 C 237.089844 243.59375 235.160156 236.992188 235.160156 228.445312 C 235.160156 219.980469 237.054688 213.390625 240.796875 208.855469 C 244.539062 204.324219 249.5625 202.121094 256.160156 202.121094 C 262.695312 202.121094 267.699219 204.324219 271.453125 208.859375 " fill-opacity="1" fill-rule="nonzero"/><g clip-path="url(#id28)"><path fill="rgb(100%, 64.709473%, 0%)" d="M 210.46875 253.066406 C 210.214844 252.488281 209.546875 252.222656 208.96875 252.472656 C 207.269531 253.21875 205.734375 253.914062 204.363281 254.5625 C 203.050781 255.183594 201.296875 255.847656 199.148438 256.535156 C 197.335938 257.101562 195.328125 257.59375 193.183594 258.003906 C 191.070312 258.402344 188.703125 258.605469 186.148438 258.605469 C 181.328125 258.605469 176.898438 257.917969 172.972656 256.566406 C 169.09375 255.234375 165.671875 253.113281 162.800781 250.265625 C 159.988281 247.472656 157.757812 243.867188 156.167969 239.542969 C 154.566406 235.1875 153.753906 230.035156 153.753906 224.234375 C 153.753906 218.734375 154.535156 213.757812 156.082031 209.445312 C 157.609375 205.164062 159.847656 201.5 162.71875 198.558594 C 165.507812 195.710938 168.921875 193.503906 172.867188 192.003906 C 173.457031 191.78125 173.75 191.121094 173.527344 190.53125 C 173.304688 189.941406 172.644531 189.644531 172.0625 189.871094 C 167.804688 191.488281 164.113281 193.875 161.097656 196.964844 C 157.988281 200.140625 155.582031 204.082031 153.9375 208.675781 C 152.308594 213.238281 151.480469 218.472656 151.480469 224.234375 C 151.480469 230.304688 152.339844 235.722656 154.035156 240.332031 C 155.738281 244.972656 158.148438 248.859375 161.199219 251.886719 C 164.316406 254.976562 168.027344 257.277344 172.234375 258.726562 C 176.398438 260.160156 181.078125 260.886719 186.148438 260.886719 C 188.847656 260.886719 191.355469 260.667969 193.605469 260.242188 C 195.835938 259.820312 197.929688 259.304688 199.835938 258.710938 C 202.082031 257.988281 203.929688 257.289062 205.332031 256.625 C 206.6875 255.984375 208.203125 255.296875 209.878906 254.566406 C 210.453125 254.3125 210.71875 253.640625 210.46875 253.066406 " fill-opacity="1" fill-rule="nonzero"/></g><path fill="rgb(100%, 64.709473%, 0%)" d="M 167.972656 202.523438 C 165.757812 204.9375 164.011719 208.015625 162.785156 211.671875 C 161.570312 215.292969 160.957031 219.519531 160.957031 224.234375 C 160.957031 229.179688 161.636719 233.503906 162.984375 237.085938 C 164.332031 240.6875 166.109375 243.671875 168.257812 245.957031 C 170.511719 248.347656 173.1875 250.140625 176.203125 251.289062 C 179.183594 252.421875 182.375 253 185.6875 253 C 190.195312 253 194.484375 252.214844 198.429688 250.660156 C 199.015625 250.429688 199.304688 249.769531 199.074219 249.183594 C 198.84375 248.597656 198.183594 248.3125 197.601562 248.539062 C 193.917969 249.984375 189.914062 250.71875 185.6875 250.71875 C 182.652344 250.71875 179.730469 250.191406 177.007812 249.15625 C 174.316406 248.132812 171.929688 246.527344 169.914062 244.390625 C 167.972656 242.328125 166.355469 239.601562 165.113281 236.285156 C 163.863281 232.957031 163.230469 228.902344 163.230469 224.234375 C 163.230469 219.765625 163.804688 215.785156 164.941406 212.398438 C 166.066406 209.046875 167.648438 206.246094 169.644531 204.070312 C 171.699219 201.839844 174.058594 200.171875 176.664062 199.121094 C 181.882812 197.007812 189.027344 197.070312 194.929688 198.859375 C 195.535156 199.042969 196.167969 198.699219 196.347656 198.101562 C 196.53125 197.496094 196.191406 196.859375 195.589844 196.675781 C 192.441406 195.722656 189.078125 195.238281 185.597656 195.238281 C 182.003906 195.238281 178.710938 195.832031 175.8125 197.003906 C 172.894531 198.183594 170.253906 200.042969 167.972656 202.523438 " fill-opacity="1" fill-rule="nonzero"/><path fill="rgb(100%, 64.709473%, 0%)" d="M 201.214844 201.574219 C 201.921875 201.972656 202.628906 202.398438 203.335938 202.859375 C 203.527344 202.984375 203.742188 203.042969 203.953125 203.042969 C 204.324219 203.042969 204.691406 202.859375 204.910156 202.523438 C 205.25 201.992188 205.101562 201.289062 204.574219 200.945312 C 203.824219 200.457031 203.078125 200.003906 202.328125 199.582031 C 201.78125 199.273438 201.085938 199.46875 200.78125 200.019531 C 200.472656 200.570312 200.667969 201.265625 201.214844 201.574219 " fill-opacity="1" fill-rule="nonzero"/></svg>